PathFileType	4	(X/Y/Z)	C:\Users\WrightLab\Desktop\Jo\P4V18.trc
DataRate	CameraRate	NumFrames	NumMarkers	Units	OrigDataRate	OrigDataStartFrame	OrigNumFrames
100.00	100.00	       18	19	mm	100.00	314	       502
Frame#	Time	Headset_Front			Headset_Back			Headset_Left			Headset_Right			Left_Shoulder			Right_Shoulder			Sternum			C7			Left Elbow			Right Elbow			Left Wrist			Right Wrist			Left ASIS			Right ASIS			S2			Left Knee			Right Knee			Left Ankle			Right Ankle			
		X1	Y1	Z1	X2	Y2	Z2	X3	Y3	Z3	X4	Y4	Z4	X5	Y5	Z5	X6	Y6	Z6	X7	Y7	Z7	X8	Y8	Z8	X9	Y9	Z9	X10	Y10	Z10	X11	Y11	Z11	X12	Y12	Z12	X13	Y13	Z13	X14	Y14	Z14	X15	Y15	Z15	X16	Y16	Z16	X17	Y17	Z17	X18	Y18	Z18	X19	Y19	Z19	

314	3.130										-134.97911	1343.32886	-781.46033	-755.06561	1516.50415	-377.00861	-462.26700	1524.04138	-368.07040	-615.00989	1449.93481	-478.86398	-604.83289	1561.49390	-330.41910	-917.63031	1182.92188	-305.62393	-184.74736	1342.43958	-480.23581	-950.98999	894.33405	-429.60062	-546.07806	1554.50293	-628.11249	-748.62952	1037.06885	-448.03528	-414.43842	998.63190	-447.43002	-608.22614	1045.79126	-262.14679	-801.66931	588.31982	-579.68384	-515.56854	518.41760	-377.20880	-832.90472	111.67074	-393.05823	-641.48352	53.65920	-210.37674	
315	3.140										-135.51996	1340.84863	-790.16473	-755.54456	1516.24622	-389.41055	-461.86166	1523.01086	-377.67444	-614.43231	1448.56311	-488.96793	-606.11810	1561.12646	-341.80942	-918.05450	1181.81787	-317.66132	-185.96706	1339.57471	-487.05301	-950.42450	892.79504	-440.06842	-545.83624	1554.64124	-638.14709	-748.14697	1035.79028	-460.49445	-414.57031	997.52979	-453.99365	-610.51874	1045.84521	-270.70309	-797.39954	586.50842	-591.89813	-515.86639	517.37311	-380.81543	-833.42047	100.48792	-428.08002	-641.61371	54.24842	-210.39459	
316	3.150										-136.95958	1338.41504	-797.16241	-755.89691	1514.66443	-400.77127	-462.10825	1521.93884	-386.51370	-613.72339	1447.06909	-499.04095	-607.17090	1559.28308	-351.33603	-918.86090	1181.03857	-329.86209	-187.03661	1337.23682	-495.12186	-950.05487	890.57733	-451.05392	-545.73627	1554.11426	-647.37128	-747.59729	1034.34119	-472.80661	-414.13052	996.13361	-461.19147	-612.79053	1044.99048	-280.74774	-793.65430	584.06934	-603.22198	-515.97778	517.05231	-384.67957	-832.92395	91.86723	-462.30728	-643.44489	53.64777	-211.36295	
317	3.160										-137.66766	1334.74585	-804.49329	-756.26740	1513.47473	-412.46692	-463.01141	1520.38525	-395.36005	-612.92151	1445.94165	-509.48315	-608.40387	1557.87244	-361.16174	-919.37048	1179.94507	-342.31165	-186.97020	1334.45337	-503.23569	-949.65363	888.40680	-461.84332	-545.42389	1553.87207	-657.94958	-747.16522	1032.51758	-484.72079	-414.07932	994.98999	-468.90964	-616.46790	1043.60938	-293.00214	-789.79315	581.56030	-614.27905	-516.22595	516.71649	-386.90958	-831.81256	83.33046	-497.76529	-643.91016	54.49543	-212.28891	
318	3.170										-138.59964	1331.42444	-813.58667	-756.33893	1511.62024	-423.73059	-462.83762	1519.26685	-404.82721	-612.25281	1444.46143	-519.37134	-607.82074	1555.94214	-371.35382	-919.57416	1177.60620	-352.87320	-188.03996	1331.83618	-511.25119	-949.83014	888.07513	-473.13062	-545.21484	1552.98889	-667.34540	-746.75812	1030.63562	-496.85767	-414.01221	993.44397	-476.31442	-618.08954	1042.74951	-303.98703	-786.64392	578.62836	-624.67493	-516.03583	516.06677	-390.67133	-827.28442	74.85259	-533.26190	-644.13123	54.81223	-212.49522	
319	3.180										-138.90854	1327.83777	-820.80542	-756.69855	1511.01807	-435.90515	-462.90900	1517.60681	-413.44299	-611.18884	1442.80566	-529.68427	-608.43970	1554.19519	-381.28851	-920.34943	1177.35876	-366.74271	-188.61615	1328.10107	-519.35602	-949.16406	886.34802	-484.37012	-544.82269	1552.53992	-677.61975	-746.51831	1028.50330	-509.30148	-413.66208	992.30457	-484.65170	-619.20654	1041.76038	-311.29803	-783.83020	575.47491	-634.27185	-516.25934	515.44598	-394.91208	-823.24921	68.07071	-571.78894	-643.74506	55.78526	-212.58597	
320	3.190										-139.64946	1323.67090	-828.93097	-756.22089	1509.09534	-447.16318	-462.99002	1515.92944	-422.52173	-610.28174	1441.27783	-540.30139	-609.58899	1552.42468	-391.04160	-920.52502	1175.51660	-378.98169	-188.64191	1324.63208	-527.17358	-948.58905	884.32098	-495.50702	-544.56812	1551.40332	-687.29114	-746.23828	1025.88513	-520.94781	-413.92236	991.13678	-493.32312	-621.42871	1040.21570	-323.96686	-781.26477	572.02039	-644.13837	-515.95459	514.83649	-397.26413	-814.48083	59.80339	-606.66809	-643.98083	56.13908	-212.67435	
321	3.200										-139.93562	1319.10999	-837.60315	-756.60614	1507.11414	-458.13983	-462.37354	1514.15161	-432.94763	-609.82605	1439.41504	-550.02887	-608.72260	1550.48303	-401.30804	-921.22913	1174.37109	-391.77667	-189.37376	1320.95569	-534.88184	-948.53986	882.98212	-507.59180	-544.16455	1550.56641	-697.25140	-745.80078	1023.46289	-532.98187	-413.93732	989.17432	-501.75186	-622.81250	1038.20801	-333.61908	-778.92871	568.06134	-653.22565	-516.06128	513.98547	-401.00937	-805.67285	56.83059	-640.73651	-643.88007	57.21609	-213.40004	
322	3.210										-140.93755	1314.73230	-846.07990	-756.36420	1505.20886	-469.03543	-462.57513	1512.17554	-441.45886	-608.68988	1437.35669	-560.42181	-609.49957	1548.58630	-411.29257	-921.61261	1172.61658	-404.61649	-189.81503	1317.20935	-543.82611	-947.70593	880.24841	-518.65796	-543.78168	1549.27747	-707.25287	-745.76135	1020.52710	-544.92621	-414.28397	987.48138	-511.13113	-625.18964	1037.22266	-345.14487	-776.66321	563.83929	-661.77472	-515.61798	513.71063	-405.63190	-795.83881	50.71625	-675.12445	-643.80402	58.20497	-213.39166	
323	3.220										-141.20856	1309.49182	-853.84113	-756.01996	1503.48743	-480.94742	-462.99234	1510.22986	-451.07401	-608.47247	1436.04065	-571.57263	-609.01306	1546.93958	-421.22626	-922.19348	1170.71301	-416.63049	-190.30763	1313.69543	-552.55890	-947.25873	878.56403	-530.98016	-543.38885	1548.05151	-716.95996	-745.57092	1017.95111	-557.10486	-414.20142	985.89459	-521.02472	-625.86414	1034.33655	-358.58780	-774.03162	559.58563	-670.45984	-515.38379	513.12384	-410.76581	-786.49683	48.03609	-707.67816	-643.88062	59.49282	-213.84236	
324	3.230										-141.51025	1304.62073	-862.33417	-755.60382	1501.78259	-491.77618	-462.03067	1508.15295	-460.13934	-607.23218	1433.62292	-580.80902	-609.10364	1544.22021	-431.19308	-922.36499	1168.80310	-428.82022	-190.56204	1309.73047	-560.90356	-946.70752	875.63049	-542.43408	-542.97217	1546.67822	-727.33789	-745.64008	1014.87646	-568.93738	-414.30206	984.48120	-530.82483	-626.55005	1032.81152	-367.81921	-770.88391	554.58557	-678.39819	-514.68152	512.36462	-415.16586				-644.87256	60.57355	-214.62495	
325	3.240										-141.63622	1297.94714	-870.73566	-754.87695	1499.75647	-503.07300	-462.22241	1505.74170	-469.97931	-606.74335	1432.02295	-591.13574	-608.73627	1542.61646	-441.19263	-922.21942	1166.43445	-441.20917	-190.72433	1305.85254	-569.88098	-946.35406	873.55585	-554.39136	-542.45618	1545.54065	-737.35590	-745.47839	1012.16229	-580.77002	-414.45276	982.21899	-540.99927	-629.66553	1029.58228	-384.45728	-767.12280	549.59082	-686.55652	-515.06818	512.10931	-420.31183				-645.07019	61.53496	-214.73242	
326	3.250										-141.78868	1291.78711	-878.34619	-755.53595	1497.68945	-514.12836	-461.46210	1503.38220	-479.60550	-606.03040	1430.08008	-602.09137	-609.41888	1540.45923	-451.74509	-921.80176	1164.05908	-453.99271	-191.50137	1301.89905	-578.83160	-945.64209	870.55212	-565.78137	-541.87036	1544.29810	-747.75989	-745.66016	1009.19501	-592.85876	-414.18781	980.80847	-550.82043	-629.27014	1028.77820	-393.17175	-763.35919	544.94794	-696.27563	-514.74097	511.40292	-425.43497				-644.93524	63.01809	-216.07651	
327	3.260										-142.06279	1286.09424	-887.44415	-754.27917	1495.29480	-524.47046	-461.29443	1501.01721	-489.44040	-605.33929	1428.32874	-612.68762	-608.29871	1537.96533	-461.76843	-922.90393	1162.11108	-466.10809	-191.51015	1297.45532	-587.10168	-945.84979	870.41180	-579.90442	-541.16119	1543.43372	-757.79077	-745.47699	1006.48743	-604.60681	-414.08258	979.47070	-561.80762	-631.15491	1025.59521	-408.73395	-759.46594	541.82654	-706.30804	-514.14258	510.84518	-431.18744				-644.49554	65.40099	-216.93796	
328	3.270										-141.90462	1279.32263	-896.62799	-754.48022	1493.08545	-534.91345	-460.51648	1498.98987	-498.95520	-604.69336	1426.60254	-623.79315	-609.34387	1536.61768	-472.48395	-922.55444	1160.06555	-478.31985	-191.59496	1292.81482	-595.56409	-945.29272	867.58942	-592.24677	-540.57928	1542.13367	-768.39343	-745.27399	1003.87219	-616.31140	-413.85596	978.05432	-572.58374	-631.38330	1024.16162	-417.10181	-755.52521	539.14178	-718.77271	-512.79315	510.48834	-439.13809				-645.74133	66.92183	-218.80301	
329	3.280										-142.18600	1271.92188	-904.91187	-754.12823	1491.28906	-545.94763	-460.34555	1496.91919	-510.07184	-604.09155	1424.91992	-633.23407	-607.87927	1533.71997	-482.81042	-922.58942	1157.84143	-491.03204	-191.94473	1288.67871	-604.67987	-945.15588	865.27399	-604.22839	-539.94232	1540.89575	-778.48547	-744.77399	1001.81964	-628.39966	-413.45752	976.85553	-582.72552	-633.35437	1021.04144	-429.76764	-751.60431	536.61707	-731.41473	-512.26740	509.85022	-446.51437	-709.10608	33.74863	-856.64349	-644.89484	69.72003	-220.49991	
330	3.290										-141.83412	1265.02161	-913.89178	-753.77649	1489.55151	-556.67719	-459.30145	1495.07007	-519.79126	-603.61499	1423.16382	-644.11475	-608.27228	1532.08557	-493.38818	-922.58630	1156.04150	-503.59229	-192.24364	1284.31592	-613.66809	-944.13452	863.38708	-618.75055	-539.22351	1539.84338	-788.95496	-744.50671	999.09637	-640.43610	-412.92892	975.84375	-592.71454	-632.70941	1020.46997	-440.97543	-746.74585	534.52588	-744.47821	-510.71832	509.32071	-455.51321	-698.99115	32.42391	-865.99677	-644.86865	72.02523	-222.20006	
331	3.300										-141.77167	1257.45068	-923.12781	-753.32758	1487.93945	-568.03259	-459.51636	1493.12976	-529.78564	-603.22821	1421.72424	-654.73010	-608.33289	1530.16956	-503.67072	-922.31482	1153.81543	-515.50342	-193.02046	1280.10022	-623.79395	-944.69733	861.82617	-630.30664	-538.34943	1538.98267	-799.85034	-743.63019	997.49609	-653.30200	-413.02515	974.74768	-602.76825	-634.95795	1017.41333	-449.65710	-742.09332	533.31964	-758.73621	-509.10724	508.75223	-464.37027	-689.76709	29.54526	-876.60614	-645.23999	75.17554	-223.40973	
